<svg width="114" height="18" viewBox="0 0 114 18" fill="none" xmlns="http://www.w3.org/2000/svg">
<path d="M15.9627 6.20688L11.4996 5.55825L9.50448 1.51352C9.44999 1.40278 9.36034 1.31313 9.2496 1.25864C8.97186 1.12153 8.63436 1.23579 8.4955 1.51352L6.50038 5.55825L2.03729 6.20688C1.91425 6.22446 1.80175 6.28246 1.71561 6.37036C1.61148 6.47738 1.5541 6.62137 1.55608 6.77068C1.55806 6.91999 1.61923 7.06241 1.72616 7.16664L4.95526 10.3149L4.19237 14.7604C4.17448 14.8638 4.18592 14.9702 4.2254 15.0674C4.26488 15.1646 4.33082 15.2489 4.41573 15.3105C4.50065 15.3722 4.60114 15.4089 4.70583 15.4163C4.81051 15.4238 4.91519 15.4018 5.008 15.3528L8.99999 13.2539L12.992 15.3528C13.101 15.4108 13.2275 15.4301 13.3488 15.409C13.6547 15.3563 13.8603 15.0663 13.8076 14.7604L13.0447 10.3149L16.2738 7.16664C16.3617 7.08051 16.4197 6.96801 16.4373 6.84496C16.4848 6.53735 16.2703 6.25258 15.9627 6.20688Z" fill="#6D91EE"/>
<path d="M39.9627 6.20688L35.4996 5.55825L33.5045 1.51352C33.45 1.40278 33.3603 1.31313 33.2496 1.25864C32.9719 1.12153 32.6344 1.23579 32.4955 1.51352L30.5004 5.55825L26.0373 6.20688C25.9142 6.22446 25.8017 6.28246 25.7156 6.37036C25.6115 6.47738 25.5541 6.62137 25.5561 6.77068C25.5581 6.91999 25.6192 7.06241 25.7262 7.16664L28.9553 10.3149L28.1924 14.7604C28.1745 14.8638 28.1859 14.9702 28.2254 15.0674C28.2649 15.1646 28.3308 15.2489 28.4157 15.3105C28.5006 15.3722 28.6011 15.4089 28.7058 15.4163C28.8105 15.4238 28.9152 15.4018 29.008 15.3528L33 13.2539L36.992 15.3528C37.101 15.4108 37.2275 15.4301 37.3488 15.409C37.6547 15.3563 37.8603 15.0663 37.8076 14.7604L37.0447 10.3149L40.2738 7.16664C40.3617 7.08051 40.4197 6.96801 40.4373 6.84496C40.4848 6.53735 40.2703 6.25258 39.9627 6.20688Z" fill="#6D91EE"/>
<path d="M63.9627 6.20688L59.4996 5.55825L57.5045 1.51352C57.45 1.40278 57.3603 1.31313 57.2496 1.25864C56.9719 1.12153 56.6344 1.23579 56.4955 1.51352L54.5004 5.55825L50.0373 6.20688C49.9142 6.22446 49.8017 6.28246 49.7156 6.37036C49.6115 6.47738 49.5541 6.62137 49.5561 6.77068C49.5581 6.91999 49.6192 7.06241 49.7262 7.16664L52.9553 10.3149L52.1924 14.7604C52.1745 14.8638 52.1859 14.9702 52.2254 15.0674C52.2649 15.1646 52.3308 15.2489 52.4157 15.3105C52.5006 15.3722 52.6011 15.4089 52.7058 15.4163C52.8105 15.4238 52.9152 15.4018 53.008 15.3528L57 13.2539L60.992 15.3528C61.101 15.4108 61.2275 15.4301 61.3488 15.409C61.6547 15.3563 61.8603 15.0663 61.8076 14.7604L61.0447 10.3149L64.2738 7.16664C64.3617 7.08051 64.4197 6.96801 64.4373 6.84496C64.4848 6.53735 64.2703 6.25258 63.9627 6.20688Z" fill="#6D91EE"/>
<path d="M87.9627 6.20688L83.4996 5.55825L81.5045 1.51352C81.45 1.40278 81.3603 1.31313 81.2496 1.25864C80.9719 1.12153 80.6344 1.23579 80.4955 1.51352L78.5004 5.55825L74.0373 6.20688C73.9142 6.22446 73.8017 6.28246 73.7156 6.37036C73.6115 6.47738 73.5541 6.62137 73.5561 6.77068C73.5581 6.91999 73.6192 7.06241 73.7262 7.16664L76.9553 10.3149L76.1924 14.7604C76.1745 14.8638 76.1859 14.9702 76.2254 15.0674C76.2649 15.1646 76.3308 15.2489 76.4157 15.3105C76.5006 15.3722 76.6011 15.4089 76.7058 15.4163C76.8105 15.4238 76.9152 15.4018 77.008 15.3528L81 13.2539L84.992 15.3528C85.101 15.4108 85.2275 15.4301 85.3488 15.409C85.6547 15.3563 85.8603 15.0663 85.8076 14.7604L85.0447 10.3149L88.2738 7.16664C88.3617 7.08051 88.4197 6.96801 88.4373 6.84496C88.4848 6.53735 88.2703 6.25258 87.9627 6.20688Z" fill="#6D91EE"/>
<path d="M111.963 6.20688L107.5 5.55825L105.504 1.51352C105.45 1.40278 105.36 1.31313 105.25 1.25864C104.972 1.12153 104.634 1.23579 104.495 1.51352L102.5 5.55825L98.0373 6.20688C97.9142 6.22446 97.8017 6.28246 97.7156 6.37036C97.6115 6.47738 97.5541 6.62137 97.5561 6.77068C97.5581 6.91999 97.6192 7.06241 97.7262 7.16664L100.955 10.3149L100.192 14.7604C100.174 14.8638 100.186 14.9702 100.225 15.0674C100.265 15.1646 100.331 15.2489 100.416 15.3105C100.501 15.3722 100.601 15.4089 100.706 15.4163C100.811 15.4238 100.915 15.4018 101.008 15.3528L105 13.2539L108.992 15.3528C109.101 15.4108 109.228 15.4301 109.349 15.409C109.655 15.3563 109.86 15.0663 109.808 14.7604L109.045 10.3149L112.274 7.16664C112.362 7.08051 112.42 6.96801 112.437 6.84496C112.485 6.53735 112.27 6.25258 111.963 6.20688Z" fill="#6D91EE"/>
</svg>
